# xmcd
#
# Track frame offsets: 
#        150
#        43110
#        61997
#        81097
#        96682
#        110917
#        124115
#        155567
#        171175
#        184535
#        192887
#
# Disc length: 3196 seconds
#
# Revision: 1
# Processed by: cddbd v1.5.2PL0 Copyright (c) Steve Scherf et al.
# Submitted via: ExactAudioCopy v1.0b3
#
DISCID=9a0c7a0b
DTITLE=桂文珍 - 桂文珍1 後生鰻・七段目
DYEAR=1998
DGENRE=Other
TTITLE0=後生鰻　出囃子「円馬囃子」～マクラ
TTITLE1=後生鰻　正義も過ぎれば罪
TTITLE2=後生鰻　折衝を戒む
TTITLE3=後生鰻　鰻の救済
TTITLE4=後生鰻　鰻屋夫婦の欲と知恵
TTITLE5=後生鰻　欲心と信心の究極～サゲ
TTITLE6=七段目　出囃子「円馬囃子」～マクラ
TTITLE7=七段目　悩みはせがれの芝居道楽
TTITLE8=七段目　小言VS声色
TTITLE9=七段目　二階の一人芝居
TTITLE10=七段目　定吉相手に「七段目」～サゲ～追い出し
EXTD=YEAR: 1998
EXTT0=
EXTT1=
EXTT2=
EXTT3=
EXTT4=
EXTT5=
EXTT6=
EXTT7=
EXTT8=
EXTT9=
EXTT10=
PLAYORDER=
